<svg viewBox="0 0 1923 1082" fill="none" xmlns="http://www.w3.org/2000/svg" preserveAspectRatio="none">
<g clip-path="url(#clip0_2703_380)" vector-effect="non-scaling-stroke">
<path d="M1.28906 1.70447L1920.95 1080.52" stroke="#EB696C" style="stroke:#EB696C;stroke:color(display-p3 0.9226 0.4134 0.4219);stroke-opacity:1;" stroke-linecap="square" vector-effect="non-scaling-stroke"/>
<path d="M960.703 1.70447L1921.53 1080.52" stroke="#EB696C" style="stroke:#EB696C;stroke:color(display-p3 0.9226 0.4134 0.4219);stroke-opacity:1;" stroke-linecap="square" vector-effect="non-scaling-stroke"/>
<path d="M1.28906 1080.52L1920.95 0.705902" stroke="#EB696C" style="stroke:#EB696C;stroke:color(display-p3 0.9226 0.4134 0.4219);stroke-opacity:1;" stroke-linecap="square" vector-effect="non-scaling-stroke"/>
<path d="M0.703125 1.703L959.533 1079.52" stroke="#EB696C" style="stroke:#EB696C;stroke:color(display-p3 0.9226 0.4134 0.4219);stroke-opacity:1;" stroke-linecap="square" vector-effect="non-scaling-stroke"/>
<path d="M0.703125 1080.52L960.531 1.70453" stroke="#EB696C" style="stroke:#EB696C;stroke:color(display-p3 0.9226 0.4134 0.4219);stroke-opacity:1;" stroke-linecap="square" vector-effect="non-scaling-stroke"/>
<path d="M0.703125 540.909L960.531 1080.32" stroke="#EB696C" style="stroke:#EB696C;stroke:color(display-p3 0.9226 0.4134 0.4219);stroke-opacity:1;" stroke-linecap="square" vector-effect="non-scaling-stroke"/>
<path d="M1.70312 540.318L960.738 1.27539" stroke="#EB696C" style="stroke:#EB696C;stroke:color(display-p3 0.9226 0.4134 0.4219);stroke-opacity:1;" stroke-linecap="square" vector-effect="non-scaling-stroke"/>
<path d="M960.703 0.908875L1921.53 540.318" stroke="#EB696C" style="stroke:#EB696C;stroke:color(display-p3 0.9226 0.4134 0.4219);stroke-opacity:1;" stroke-linecap="square" vector-effect="non-scaling-stroke"/>
<path d="M960.703 1080.32L1921.53 540.909" stroke="#EB696C" style="stroke:#EB696C;stroke:color(display-p3 0.9226 0.4134 0.4219);stroke-opacity:1;" stroke-linecap="square" vector-effect="non-scaling-stroke"/>
<path d="M960.703 1080.52L1921.53 0.705963" stroke="#EB696C" style="stroke:#EB696C;stroke:color(display-p3 0.9226 0.4134 0.4219);stroke-opacity:1;" stroke-linecap="square" vector-effect="non-scaling-stroke"/>
<path d="M1601.62 1.11328V1081.11" stroke="#EB696C" style="stroke:#EB696C;stroke:color(display-p3 0.9226 0.4134 0.4219);stroke-opacity:1;" vector-effect="non-scaling-stroke"/>
<path d="M1441.07 1.11328V1081.11" stroke="#EB696C" style="stroke:#EB696C;stroke:color(display-p3 0.9226 0.4134 0.4219);stroke-opacity:1;" vector-effect="non-scaling-stroke"/>
<path d="M1281 1.11328V1081.11" stroke="#EB696C" style="stroke:#EB696C;stroke:color(display-p3 0.9226 0.4134 0.4219);stroke-opacity:1;" vector-effect="non-scaling-stroke"/>
<path d="M1121 1.11328V1081.11" stroke="#EB696C" style="stroke:#EB696C;stroke:color(display-p3 0.9226 0.4134 0.4219);stroke-opacity:1;" vector-effect="non-scaling-stroke"/>
<path d="M801 1.11328V1081.11" stroke="#EB696C" style="stroke:#EB696C;stroke:color(display-p3 0.9226 0.4134 0.4219);stroke-opacity:1;" vector-effect="non-scaling-stroke"/>
<path d="M961 1.11328V1081.11" stroke="#EB696C" style="stroke:#EB696C;stroke:color(display-p3 0.9226 0.4134 0.4219);stroke-opacity:1;" vector-effect="non-scaling-stroke"/>
<path d="M640.617 1.11328V1081.11" stroke="#EB696C" style="stroke:#EB696C;stroke:color(display-p3 0.9226 0.4134 0.4219);stroke-opacity:1;" vector-effect="non-scaling-stroke"/>
<path d="M481.117 1.11328V1081.11" stroke="#EB696C" style="stroke:#EB696C;stroke:color(display-p3 0.9226 0.4134 0.4219);stroke-opacity:1;" vector-effect="non-scaling-stroke"/>
<path d="M320.617 1.11328V1081.11" stroke="#EB696C" style="stroke:#EB696C;stroke:color(display-p3 0.9226 0.4134 0.4219);stroke-opacity:1;" vector-effect="non-scaling-stroke"/>
<path d="M161 1.11328V1081.11" stroke="#EB696C" style="stroke:#EB696C;stroke:color(display-p3 0.9226 0.4134 0.4219);stroke-opacity:1;" vector-effect="non-scaling-stroke"/>
<path d="M1763 1.11328V1081.11" stroke="#EB696C" style="stroke:#EB696C;stroke:color(display-p3 0.9226 0.4134 0.4219);stroke-opacity:1;" vector-effect="non-scaling-stroke"/>
<path d="M1.11719 810.487H0.617188V811.487H1.11719V810.987V810.487ZM1.11719 810.987V811.487H1921.12V810.987V810.487H1.11719V810.987Z" fill="#EB696C" style="fill:#EB696C;fill:color(display-p3 0.9226 0.4134 0.4219);fill-opacity:1;" vector-effect="non-scaling-stroke"/>
<path d="M1.11719 720.487H0.617188V721.487H1.11719V720.987V720.487ZM1.11719 720.987V721.487H1921.12V720.987V720.487H1.11719V720.987Z" fill="#EB696C" style="fill:#EB696C;fill:color(display-p3 0.9226 0.4134 0.4219);fill-opacity:1;" vector-effect="non-scaling-stroke"/>
<path d="M1.11719 947H0.617188V948H1.11719V947.5V947ZM1.11719 947.5V948H1921.12V947.5V947H1.11719V947.5Z" fill="#EB696C" style="fill:#EB696C;fill:color(display-p3 0.9226 0.4134 0.4219);fill-opacity:1;" vector-effect="non-scaling-stroke"/>
<path d="M1.11719 540.487H0.617188V541.487H1.11719V540.987V540.487ZM1.11719 540.987V541.487H1921.12V540.987V540.487H1.11719V540.987Z" fill="#EB696C" style="fill:#EB696C;fill:color(display-p3 0.9226 0.4134 0.4219);fill-opacity:1;" vector-effect="non-scaling-stroke"/>
<path d="M1.11719 360.487H0.617188V361.487H1.11719V360.987V360.487ZM1.11719 360.987V361.487H1921.12V360.987V360.487H1.11719V360.987Z" fill="#EB696C" style="fill:#EB696C;fill:color(display-p3 0.9226 0.4134 0.4219);fill-opacity:1;" vector-effect="non-scaling-stroke"/>
<path d="M1.11719 270.613H1921.12" stroke="#EB696C" style="stroke:#EB696C;stroke:color(display-p3 0.9226 0.4134 0.4219);stroke-opacity:1;" vector-effect="non-scaling-stroke"/>
</g>
<defs>
<clipPath id="clip0_2703_380">
<rect width="1923" height="1082" fill="white" style="fill:white;fill-opacity:1;"/>
</clipPath>
</defs>
</svg>
